<?xml version="1.0" standalone="no"?>
<!DOCTYPE svg PUBLIC "-//W3C//DTD SVG 20010904//EN"
 "http://www.w3.org/TR/2001/REC-SVG-20010904/DTD/svg10.dtd">
<svg version="1.0" xmlns="http://www.w3.org/2000/svg"
 width="16" height="16" viewBox="0 0 16 16"
 preserveAspectRatio="xMidYMid meet">

<g transform="translate(0.000000,125.000000) scale(0.100000,-0.100000)"
fill="#000000" stroke="none">
<path d="M0 1125 l0 -1125 1125 0 1125 0 0 1125 0 1125 -1125 0 -1125 0 0
-1125z m990 441 c0 -8 -16 -15 -42 -19 -29 -4 -50 -14 -65 -32 -22 -25 -23
-35 -23 -186 l0 -159 59 0 58 0 7 48 c13 103 92 222 191 290 92 62 274 82 390
42 32 -11 70 -20 85 -20 15 0 35 9 45 20 38 42 45 27 45 -94 0 -62 3 -128 6
-145 11 -53 -20 -37 -45 23 -29 71 -82 131 -144 162 -44 23 -60 25 -137 22
-76 -3 -93 -7 -136 -33 -79 -49 -130 -141 -149 -269 l-7 -45 88 -4 c49 -1 -75
-3 -276 -3 -201 0 -330 2 -287 3 l77 4 0 152 c0 84 -3 162 -6 175 -8 27 -52
52 -94 52 -16 0 -30 4 -30 10 0 5 57 11 138 12 76 2 164 4 195 6 43 2 57 -1
57 -12z m-132 -593 c-3 -83 -10 -131 -22 -161 -20 -46 -26 -48 -31 -10 -1 12
-6 32 -11 42 -5 13 -4 17 4 13 15 -10 19 19 11 83 -4 30 -9 76 -12 103 l-4 47
35 0 34 0 -4 -117z m358 110 l-88 -4 7 -47 c18 -120 80 -220 165 -266 42 -23
70 -30 141 -35 48 -3 91 -10 95 -14 4 -4 2 -7 -5 -7 -7 0 -10 -4 -6 -9 8 -14
-98 -25 -177 -18 -86 7 -178 48 -242 108 -56 51 -114 163 -123 236 l-6 52 -51
4 c-28 2 46 3 164 3 118 0 175 -2 126 -3z m-616 -263 c8 -5 11 -10 5 -10 -5 0
-17 5 -25 10 -8 5 -10 10 -5 10 6 0 17 -5 25 -10z m180 -30 c0 -5 -5 -10 -11
-10 -5 0 -7 5 -4 10 3 6 8 10 11 10 2 0 4 -4 4 -10z m-107 -107 c-7 -2 -19 -2
-25 0 -7 3 -2 5 12 5 14 0 19 -2 13 -5z"/>
</g>
</svg>
